<svg width="54" height="54" viewBox="0 0 54 54" fill="none" xmlns="http://www.w3.org/2000/svg">
<g clip-path="url(#clip0)">
<circle cx="27" cy="27" r="27" fill="#0A3038"/>
<path d="M27 -0.057373C12.0808 -0.057373 -0.0590515 12.0791 -0.0590515 27C-0.0590515 41.9209 12.0808 54.0574 27 54.0574C41.9192 54.0574 54.0591 41.9209 54.0591 27C54.0591 12.0791 41.9192 -0.057373 27 -0.057373ZM27 52.2551C13.0748 52.2551 1.74657 40.9253 1.74657 27C1.74657 13.0748 13.0748 1.74488 27 1.74488C40.9253 1.74488 52.2534 13.0748 52.2534 27C52.2534 40.9253 40.9253 52.2551 27 52.2551Z" fill="url(#paint0_linear)"/>
<path d="M32.9063 11.8125H28.404C22.6699 11.7551 21.9375 15.3039 21.9375 19.1447V21.9375H19.4063C19.2919 21.9222 19.1755 21.9335 19.0661 21.9705C18.9568 22.0075 18.8575 22.0692 18.7759 22.1508C18.6942 22.2325 18.6325 22.3318 18.5955 22.4411C18.5585 22.5505 18.5472 22.6668 18.5625 22.7813V27.8438C18.5472 27.9582 18.5585 28.0746 18.5955 28.1839C18.6325 28.2932 18.6942 28.3926 18.7759 28.4742C18.8575 28.5558 18.9568 28.6175 19.0661 28.6545C19.1755 28.6915 19.2919 28.7028 19.4063 28.6875H21.9375V41.3438C21.9235 41.4584 21.9358 41.5747 21.9735 41.6838C22.0113 41.7929 22.0735 41.892 22.1554 41.9734C22.2373 42.0548 22.3367 42.1164 22.4461 42.1535C22.5554 42.1906 22.6718 42.2023 22.7863 42.1875H27.9416C28.4395 42.2449 28.8428 41.8416 28.6841 41.3438L28.6875 28.6875H32.9063C33.0207 28.7028 33.1371 28.6915 33.2464 28.6545C33.3557 28.6175 33.4551 28.5558 33.5367 28.4742C33.6183 28.3926 33.68 28.2932 33.717 28.1839C33.754 28.0746 33.7653 27.9582 33.75 27.8438V22.7813C33.7653 22.6668 33.754 22.5505 33.717 22.4411C33.68 22.3318 33.6183 22.2325 33.5367 22.1508C33.4551 22.0692 33.3557 22.0075 33.2464 21.9705C33.1371 21.9335 33.0207 21.9222 32.9063 21.9375H28.6825L28.6875 19.4063C28.8512 18.3279 28.8512 18.5034 29.8519 18.5625H32.8708C33.1054 18.5102 33.3551 18.5389 33.5306 18.3684C33.7061 18.198 33.8074 17.9651 33.7483 17.7188V12.6563C33.7639 12.5419 33.7529 12.4256 33.7161 12.3162C33.6793 12.2069 33.6178 12.1075 33.5363 12.0258C33.4548 11.9442 33.3555 11.8824 33.2462 11.8454C33.137 11.8084 33.0206 11.7972 32.9063 11.8125V11.8125ZM32.0035 16.7805L29.8873 16.6995C27.2666 16.6995 27.0473 18.1221 27.0473 19.5784L27.0405 22.7779C27.0403 22.8964 27.0634 23.0137 27.1086 23.1232C27.1538 23.2328 27.2202 23.3323 27.3039 23.4162C27.3876 23.5 27.487 23.5665 27.5964 23.6119C27.7058 23.6573 27.8232 23.6807 27.9416 23.6807H32.0625V26.9409H27.945C27.7059 26.9409 27.4765 27.0358 27.3072 27.2048C27.138 27.3737 27.0427 27.6029 27.0422 27.8421L27.0405 40.5H23.625V27.8438C23.625 27.3459 23.2858 26.9426 22.7863 26.9426H20.25V23.6824H22.7863C22.9047 23.6826 23.022 23.6594 23.1315 23.6142C23.2409 23.5691 23.3404 23.5028 23.4242 23.4191C23.593 23.2487 23.6233 23.0192 23.6233 22.7796V19.143C23.6233 15.3596 24.3878 13.5574 28.4023 13.5574H32.0018V16.7805H32.0035Z" fill="#0075FF"/>
</g>
<defs>
<linearGradient id="paint0_linear" x1="27" y1="-0.057373" x2="27" y2="54.0574" gradientUnits="userSpaceOnUse">
<stop stop-color="#02BFF8"/>
<stop offset="1" stop-color="#0161F8"/>
</linearGradient>
<clipPath id="clip0">
<rect width="54" height="54" fill="white"/>
</clipPath>
</defs>
</svg>
