<svg width="54" height="54" viewBox="0 0 54 54" fill="none" xmlns="http://www.w3.org/2000/svg">
<g clip-path="url(#clip0)">
<circle cx="27" cy="27" r="27" fill="#0A3038"/>
<path d="M27 -0.057373C12.0808 -0.057373 -0.0590515 12.0791 -0.0590515 27C-0.0590515 41.9209 12.0808 54.0574 27 54.0574C41.9192 54.0574 54.0591 41.9209 54.0591 27C54.0591 12.0791 41.9192 -0.057373 27 -0.057373ZM27 52.2551C13.0748 52.2551 1.74657 40.9253 1.74657 27C1.74657 13.0748 13.0748 1.74488 27 1.74488C40.9253 1.74488 52.2534 13.0748 52.2534 27C52.2534 40.9253 40.9253 52.2551 27 52.2551Z" fill="url(#paint0_linear)"/>
<path d="M41.8399 18.6401C42.027 18.2936 42.1813 17.9304 42.3005 17.5551C42.3558 17.381 42.3569 17.1942 42.3037 17.0195C42.2506 16.8448 42.1457 16.6903 42.003 16.5764C41.8602 16.4625 41.6862 16.3946 41.5041 16.3816C41.3219 16.3686 41.1401 16.4112 40.9826 16.5038C40.1179 17.0174 39.1819 17.4002 38.205 17.6394C37.0191 16.5692 35.479 15.9759 33.8816 15.9739C33.0138 15.9745 32.155 16.1504 31.3567 16.491C30.5585 16.8316 29.8373 17.3299 29.2363 17.9559C28.6353 18.582 28.1669 19.323 27.8591 20.1344C27.5514 20.9459 27.4107 21.8112 27.4455 22.6783C23.6503 22.2005 20.1847 20.2801 17.7677 17.3154C17.6751 17.2031 17.5567 17.1148 17.4227 17.058C17.2886 17.0012 17.1429 16.9776 16.9978 16.9892C16.8526 17.0008 16.7125 17.0473 16.5892 17.1246C16.4658 17.202 16.363 17.308 16.2894 17.4336C15.736 18.3835 15.4351 19.4594 15.4156 20.5586C15.3961 21.6579 15.6586 22.7438 16.178 23.7128C16.0507 23.7342 15.9283 23.7789 15.8169 23.8444C15.6805 23.9314 15.5681 24.0513 15.4903 24.1932C15.4124 24.3351 15.3715 24.4942 15.3714 24.6561C15.3714 26.5714 16.2236 28.3298 17.5972 29.5245L17.5382 29.5836C17.4345 29.7009 17.3631 29.8432 17.3312 29.9965C17.2992 30.1497 17.3077 30.3087 17.3559 30.4577C17.6424 31.3513 18.1206 32.1714 18.7572 32.8608C19.3938 33.5502 20.1734 34.0921 21.0414 34.4486C19.2587 35.3183 17.2637 35.6574 15.2938 35.4257C15.0913 35.405 14.8877 35.4522 14.7148 35.5597C14.542 35.6671 14.4097 35.8289 14.3387 36.0197C14.2705 36.2118 14.2692 36.4214 14.335 36.6144C14.4009 36.8074 14.53 36.9724 14.7015 37.0828C17.3796 38.8016 20.4951 39.7148 23.6773 39.7136C34.106 39.7136 40.3397 31.2424 40.3397 23.0529L40.338 22.7762C41.3487 21.9871 42.2266 21.0414 42.9384 19.9749C43.0462 19.8137 43.0992 19.6221 43.0896 19.4284C43.08 19.2347 43.0082 19.0492 42.885 18.8994C42.7617 18.7497 42.5935 18.6436 42.4053 18.5969C42.2171 18.5502 42.0188 18.5654 41.8399 18.6401V18.6401ZM38.8952 21.6017C38.7727 21.6897 38.6743 21.8071 38.6088 21.943C38.5434 22.0789 38.513 22.229 38.5205 22.3796C38.5307 22.6024 38.5357 22.8285 38.5357 23.0513C38.5357 30.3548 32.9788 37.9097 23.679 37.9097C22.0203 37.9104 20.3734 37.6321 18.8072 37.0862C20.683 36.7267 22.4451 35.9223 23.9456 34.7406C24.0917 34.6254 24.1986 34.4679 24.2518 34.2897C24.3049 34.1114 24.3018 33.9211 24.2427 33.7448C24.1836 33.5684 24.0714 33.4146 23.9216 33.3044C23.7718 33.1942 23.5916 33.1329 23.4056 33.129C22.678 33.1151 21.9638 32.9304 21.3207 32.5898C20.6776 32.2492 20.1236 31.7622 19.7032 31.1681C20.1302 31.1394 20.5487 31.0686 20.9554 30.9589C21.1522 30.9062 21.3254 30.7884 21.4466 30.6246C21.5678 30.4609 21.63 30.2608 21.623 30.0572C21.6159 29.8536 21.5401 29.6583 21.4078 29.5034C21.2755 29.3484 21.0946 29.2428 20.8946 29.2039C20.0728 29.0367 19.312 28.6493 18.6934 28.083C18.0748 27.5168 17.6219 26.793 17.3829 25.9892C17.8318 26.1023 18.2925 26.1681 18.7532 26.1833C19.1497 26.1816 19.5176 25.9386 19.6408 25.5572C19.764 25.1758 19.6189 24.7556 19.283 24.5329C18.489 24.0039 17.8777 23.2426 17.5325 22.3532C17.1872 21.4637 17.125 20.4894 17.3542 19.5632C20.2855 22.5708 24.2435 24.3619 28.4377 24.5784C28.7347 24.5801 28.9946 24.4738 29.1752 24.2561C29.3557 24.0384 29.4249 23.7499 29.3608 23.4731C29.13 22.4792 29.2332 21.4369 29.6545 20.5075C30.0758 19.5782 30.7916 18.8136 31.6913 18.3321C32.5909 17.8505 33.6241 17.679 34.6311 17.8439C35.6381 18.0088 36.5626 18.5009 37.2617 19.2443C37.3664 19.356 37.4979 19.4393 37.6438 19.4863C37.7896 19.5332 37.945 19.5422 38.0953 19.5126C38.3737 19.4569 38.6488 19.3928 38.9205 19.3185C38.798 19.4102 38.6707 19.4953 38.5391 19.5733C38.3641 19.6805 38.2309 19.8441 38.1613 20.0372C38.0918 20.2302 38.0901 20.4412 38.1565 20.6354C38.2229 20.8296 38.3535 20.9953 38.5267 21.1053C38.7 21.2153 38.9055 21.263 39.1095 21.2406L39.4166 21.2018C39.2475 21.3411 39.0736 21.4745 38.8952 21.6017V21.6017Z" fill="url(#paint1_linear)"/>
</g>
<defs>
<linearGradient id="paint0_linear" x1="27" y1="-0.057373" x2="27" y2="54.0574" gradientUnits="userSpaceOnUse">
<stop stop-color="#17BDEE"/>
<stop offset="1" stop-color="#99E6FF"/>
</linearGradient>
<linearGradient id="paint1_linear" x1="28.6886" y1="15.9739" x2="28.6886" y2="39.7136" gradientUnits="userSpaceOnUse">
<stop stop-color="#17BDEE"/>
<stop offset="1" stop-color="#99E6FF" stop-opacity="0.92"/>
</linearGradient>
<clipPath id="clip0">
<rect width="54" height="54" fill="white"/>
</clipPath>
</defs>
</svg>
